<svg width="42" height="37" viewBox="0 0 42 37" fill="none" xmlns="http://www.w3.org/2000/svg">
    <path d="M41.0651 8.57745H40.515V6.35519C40.515 4.75251 39.2112 3.44865 37.6085 3.44865H29.9225C29.1035 3.44865 28.3626 3.78911 27.8339 4.3358C27.3051 3.78903 26.5642 3.44865 25.7454 3.44865H22.8631V2.75987C22.8631 1.23801 21.625 0 20.1032 0H7.5289C6.00704 0 4.76895 1.23809 4.76895 2.75987V3.44865H4.2747C2.67193 3.44865 1.36807 4.75251 1.36807 6.35519V8.57745H0.81803C0.366232 8.57745 0 8.94368 0 9.39548V13.5384C0 13.9901 0.366232 14.3564 0.81803 14.3564H11.0577L19.4726 19.9982L11.0577 25.64H4.09015C3.63835 25.64 3.27212 26.0063 3.27212 26.458V30.6009C3.27212 31.0527 3.63835 31.419 4.09015 31.419H7.77586C7.48276 31.9141 7.31441 32.4914 7.31441 33.1073C7.31441 34.9403 8.80568 36.4316 10.6387 36.4316C12.4718 36.4316 13.963 34.9403 13.963 33.1073C13.963 32.4914 13.7947 31.9141 13.5016 31.419H17.2435C17.6953 31.419 18.0615 31.0527 18.0615 30.6009C18.0615 30.1492 17.6953 29.7829 17.2435 29.7829H4.90818V27.2761H36.9749V29.7829H24.6395C24.1877 29.7829 23.8215 30.1492 23.8215 30.6009C23.8215 31.0527 24.1877 31.419 24.6395 31.419H28.3815C28.0884 31.9141 27.92 32.4914 27.92 33.1073C27.92 34.9403 29.4113 36.4316 31.2444 36.4316C33.0774 36.4316 34.5687 34.9403 34.5687 33.1073C34.5687 32.4914 34.4004 31.9141 34.1073 31.419H37.793C38.2447 31.419 38.611 31.0527 38.611 30.6009V26.458C38.611 26.0063 38.2447 25.64 37.793 25.64H30.8253L22.4105 19.9982L30.8253 14.3564H41.0651C41.5168 14.3564 41.8831 13.9901 41.8831 13.5384V9.39548C41.8831 8.94368 41.5168 8.57745 41.0651 8.57745ZM12.327 33.1072C12.327 34.0381 11.5696 34.7955 10.6387 34.7955C9.7078 34.7955 8.95047 34.0381 8.95047 33.1072C8.95047 32.1763 9.7078 31.4189 10.6387 31.4189C11.5696 31.4189 12.327 32.1763 12.327 33.1072ZM32.9326 33.1072C32.9326 34.0381 32.1753 34.7955 31.2444 34.7955C30.3135 34.7955 29.5561 34.0381 29.5561 33.1072C29.5561 32.1763 30.3135 31.4189 31.2444 31.4189C32.1753 31.4189 32.9326 32.1763 32.9326 33.1072ZM29.9225 5.08463H37.6085C38.3091 5.08463 38.879 5.65463 38.879 6.35511V8.57737H28.6519V6.35511C28.6519 5.65463 29.2219 5.08463 29.9225 5.08463ZM25.7454 5.08463C26.4459 5.08463 27.0158 5.65463 27.0158 6.35511V8.57737H22.863V5.08463H25.7454ZM6.40501 5.08463H21.227V8.57737H6.40501V5.08463ZM6.40501 2.75987C6.40501 2.14021 6.90916 1.63606 7.5289 1.63606H20.1031C20.7228 1.63606 21.227 2.14021 21.227 2.75987V3.44865H6.40501V2.75987ZM3.00405 6.35519C3.00405 5.65471 3.57405 5.08471 4.27461 5.08471H4.76887V8.57745H3.00405V6.35519ZM27.8875 25.64H13.9956L20.9416 20.983L27.8875 25.64ZM20.9416 19.0133L13.9956 14.3563H27.8875L20.9416 19.0133ZM40.2471 12.7203H1.63606V10.2134H40.2471V12.7203Z" fill="#6F52ED"/>
</svg>
