<svg width="34" height="47" viewBox="0 0 34 47" fill="none" xmlns="http://www.w3.org/2000/svg">
  <path d="M7.86295 14.8997L6.3942 13.4295C6.25614 13.2915 6.07034 13.2143 5.875 13.2143H2.93603C2.74069 13.2143 2.55416 13.2915 2.41683 13.4295L0.948078 14.8997C0.810016 15.0378 0.732906 15.2243 0.732906 15.4189V16.8892C0.327531 16.8906 0 17.2182 0 17.6235C0 18.0289 0.327531 18.3564 0.732906 18.3579V21.2954C0.732906 21.7015 1.06117 22.0298 1.46728 22.0298H3.67188V30.4766C3.67188 33.1086 5.81331 35.25 8.44531 35.25C11.0773 35.25 13.2188 33.1086 13.2188 30.4766V25.7061H14.6875V38.1846H8.07739C7.67128 38.1846 7.34302 38.5128 7.34302 38.9189V42.7289C6.49041 43.0329 5.87427 43.8407 5.87427 44.7961C5.87427 46.0108 6.86273 46.9993 8.07739 46.9993C9.29205 46.9993 10.2805 46.0108 10.2805 44.7961C10.2805 43.84 9.66438 43.0329 8.81177 42.7289V41.8594H16.1562V42.7296C15.3036 43.0336 14.6875 43.8415 14.6875 44.7969C14.6875 46.0115 15.676 47 16.8906 47C18.1053 47 19.0938 46.0115 19.0938 44.7969C19.0938 43.8407 18.4776 43.0336 17.625 42.7296V41.8594H24.9695V42.7296C24.1169 43.0336 23.5007 43.8415 23.5007 44.7969C23.5007 46.0115 24.4892 47 25.7039 47C26.9185 47 27.907 46.0115 27.907 44.7969C27.907 43.8407 27.2908 43.0336 26.4382 42.7296V38.9197C26.4382 38.5136 26.11 38.1853 25.7039 38.1853H19.0938V25.7061H20.5632V30.4766C20.5632 33.1086 22.7047 35.25 25.3367 35.25C27.9687 35.25 30.1101 33.1086 30.1101 30.4766V23.4229C31.7779 23.0829 33.0366 21.6068 33.0439 19.8413C33.0439 19.8362 33.0469 19.8318 33.0469 19.8267V16.8906C33.0469 14.866 31.3997 13.2188 29.375 13.2188C27.3503 13.2188 25.7031 14.866 25.7031 16.8906V19.8267C25.7031 19.8318 25.7061 19.8362 25.7061 19.8413C25.7134 21.6068 26.9729 23.0829 28.6414 23.4236V30.4766C28.6414 32.2985 27.1587 33.7812 25.3367 33.7812C23.5147 33.7812 22.032 32.2985 22.032 30.4766V25.7061H23.5C23.9061 25.7061 24.2344 25.3778 24.2344 24.9717V13.9561C24.2344 13.55 23.9061 13.2217 23.5 13.2217H21.2961V12.4844H22.0312C23.2459 12.4844 24.2344 11.4959 24.2344 10.2812V2.20312C24.2344 0.988469 23.2459 0 22.0312 0H11.75C10.5353 0 9.54688 0.988469 9.54688 2.20312V10.2812C9.54688 11.4959 10.5353 12.4844 11.75 12.4844H12.4851V13.2217H10.2812C9.87514 13.2217 9.54688 13.55 9.54688 13.9561V24.9717C9.54688 25.3778 9.87514 25.7061 10.2812 25.7061H11.75V30.4766C11.75 32.2985 10.2673 33.7812 8.44531 33.7812C6.62333 33.7812 5.14062 32.2985 5.14062 30.4766V22.0298H7.34375C7.74986 22.0298 8.07812 21.7015 8.07812 21.2954V18.3579C8.48423 18.3579 8.8125 18.0296 8.8125 17.6235C8.8125 17.2174 8.48423 16.8892 8.07812 16.8892V15.4189C8.07812 15.2243 8.00102 15.0378 7.86295 14.8997ZM16.8906 45.5312C16.4853 45.5312 16.1562 45.2023 16.1562 44.7969C16.1562 44.3915 16.4853 44.0625 16.8906 44.0625C17.296 44.0625 17.625 44.3915 17.625 44.7969C17.625 45.2023 17.296 45.5312 16.8906 45.5312ZM27.1733 19.8267C27.1733 19.8237 27.1719 19.8223 27.1719 19.8193V16.8906C27.1719 15.676 28.1603 14.6875 29.375 14.6875C30.5897 14.6875 31.5781 15.676 31.5781 16.8906V19.8193C31.5781 19.8223 31.5767 19.8237 31.5767 19.8267C31.5767 21.0406 30.5889 22.0283 29.375 22.0283C28.1611 22.0283 27.1733 21.0406 27.1733 19.8267ZM18.3594 24.2373H15.4219V19.8281H18.3594V24.2373ZM8.07739 45.5312C7.67202 45.5312 7.34302 45.2023 7.34302 44.7969C7.34302 44.3915 7.67202 44.0625 8.07739 44.0625C8.48277 44.0625 8.81177 44.3915 8.81177 44.7969C8.81177 45.2023 8.48277 45.5312 8.07739 45.5312ZM8.81177 40.3906V39.6533H15.4219H18.3594H24.9695V40.3906H8.81177ZM25.7039 45.5312C25.2985 45.5312 24.9695 45.2023 24.9695 44.7969C24.9695 44.3915 25.2985 44.0625 25.7039 44.0625C26.1092 44.0625 26.4382 44.3915 26.4382 44.7969C26.4382 45.2023 26.1092 45.5312 25.7039 45.5312ZM17.625 38.1846H16.1562V25.7061H17.625V38.1846ZM11.0156 10.2812V2.20312C11.0156 1.79775 11.3446 1.46875 11.75 1.46875H22.0312C22.4366 1.46875 22.7656 1.79775 22.7656 2.20312V10.2812C22.7656 10.6866 22.4366 11.0156 22.0312 11.0156H11.75C11.3446 11.0156 11.0156 10.6866 11.0156 10.2812ZM13.9539 12.4844H19.8274V13.2217H13.9539V12.4844ZM11.0156 14.6904H22.7656V24.2373H19.8281V19.0938C19.8281 18.6876 19.4999 18.3594 19.0938 18.3594H14.6875C14.2814 18.3594 13.9531 18.6876 13.9531 19.0938V24.2373H11.0156V14.6904ZM6.60938 20.561H5.14062V19.8267C5.54673 19.8267 5.875 19.4984 5.875 19.0923C5.875 18.6862 5.54673 18.3579 5.14062 18.3579H4.42094C4.4158 18.3579 4.41139 18.355 4.40625 18.355C4.40111 18.355 4.3967 18.3579 4.39156 18.3579H3.67188C3.26577 18.3579 2.9375 18.6862 2.9375 19.0923C2.9375 19.4984 3.26577 19.8267 3.67188 19.8267V20.561H2.20166V15.723L3.24006 14.6831H5.57097L6.60938 15.723V20.561Z" fill="#FFB946"/>
</svg>
